<?xml version="1.0" encoding="UTF-8"?>
<!DOCTYPE svg PUBLIC "-//W3C//DTD SVG 1.1//EN" "http://www.w3.org/Graphics/SVG/1.1/DTD/svg11.dtd">
<!-- Creator: CorelDRAW -->
<svg xmlns="http://www.w3.org/2000/svg" xml:space="preserve" width="2048px" height="2048px" style="shape-rendering:geometricPrecision; text-rendering:geometricPrecision; image-rendering:optimizeQuality; fill-rule:evenodd; clip-rule:evenodd"
viewBox="0 0 2048 2048"
 xmlns:xlink="http://www.w3.org/1999/xlink">
 <defs>
  <style type="text/css">
   <![CDATA[
    .fil2 {fill:none}
    .fil0 {fill:#006064}
    .fil1 {fill:#E1F5FE}
    .fil4 {fill:#FF7043}
    .fil3 {fill:#FF8A65}
   ]]>
  </style>
 </defs>
 <g id="Layer_x0020_1">
  <metadata id="CorelCorpID_0Corel-Layer"/>
  <path class="fil0" d="M1647.83 448.082l-1247.96 0c-79.1989,0 -143.875,64.676 -143.875,143.858l0 624.14c0,79.4375 64.676,143.858 143.875,143.858l1247.96 0c79.4375,0 144.164,-64.4209 144.164,-143.858l0 -624.14c0,-79.1823 -64.7268,-143.858 -144.164,-143.858z"/>
  <path class="fil1" d="M1647.83 488.081l-1247.96 0c-8.01851,0 -15.8339,0.920079 -23.3433,2.66339l-0.773623 0.190158 1357.88 783.97 0.0555119 -0.080315c11.5335,-16.7032 18.3059,-36.9331 18.3059,-58.7445l0 -624.14c0,-57.2646 -46.9725,-103.859 -104.165,-103.859zm-1272.07 2.85355c-45.5894,10.95 -79.7587,52.1882 -79.7587,101.006l0 624.14c0,57.2481 46.6441,103.859 103.876,103.859l1247.96 0c35.4992,0 66.978,-17.8276 85.8036,-45.0343l-1357.88 -783.97z"/>
  <rect class="fil2" width="2048" height="2048"/>
  <rect class="fil2" x="255.999" y="255.999" width="1536" height="1536"/>
  <rect class="fil2" x="255.999" y="255.999" width="1536" height="1536"/>
  <path class="fil0" d="M1719.77 1392.14l-503.853 0c0,14.6894 -21.5303,26.6788 -48.0437,26.6788l-288.039 0c-26.4626,0 -47.7544,-11.9894 -47.7544,-26.6788l-504.142 0c-39.6083,0 -71.9375,17.8146 -71.9375,39.9331 0,22.1103 32.3292,39.9248 71.9375,39.9248l1391.83 0c39.8292,0 72.2268,-17.8146 72.2268,-39.9248 0,-22.1185 -32.3977,-39.9331 -72.2268,-39.9331z"/>
  <g id="_347130072">
   <polygon id="_347131872" class="fil3" points="470.385,668.672 1577.61,668.672 1577.61,723.348 470.385,723.348 "/>
   <polygon id="_347132064" class="fil4" points="470.385,876.673 1577.61,876.673 1577.61,931.348 470.385,931.348 "/>
   <polygon id="_347130264" class="fil3" points="470.385,1084.67 1577.61,1084.67 1577.61,1139.35 470.385,1139.35 "/>
  </g>
 </g>
</svg>
