<?xml version="1.0" encoding="UTF-8"?>
<!DOCTYPE svg PUBLIC "-//W3C//DTD SVG 1.1//EN" "http://www.w3.org/Graphics/SVG/1.1/DTD/svg11.dtd">
<!-- Creator: CorelDRAW -->
<svg xmlns="http://www.w3.org/2000/svg" xml:space="preserve" width="2048px" height="2048px" style="shape-rendering:geometricPrecision; text-rendering:geometricPrecision; image-rendering:optimizeQuality; fill-rule:evenodd; clip-rule:evenodd"
viewBox="0 0 2048 2048"
 xmlns:xlink="http://www.w3.org/1999/xlink">
 <defs>
  <style type="text/css">
   <![CDATA[
    .fil2 {fill:none}
    .fil0 {fill:#212121;fill-rule:nonzero}
    .fil1 {fill:#66BB6A;fill-rule:nonzero}
   ]]>
  </style>
 </defs>
 <g id="Layer_x0020_1">
  <metadata id="CorelCorpID_0Corel-Layer"/>
  <path class="fil0" d="M1630.94 929.59l0 813.282c0,13.2543 -10.7457,24 -24,24l-1165.88 0c-13.2543,0 -24,-10.7457 -24,-24l0 -813.282 -137.061 0c-13.2543,0 -24,-10.7457 -24,-24 0,-8.1626 4.07599,-15.3721 10.3028,-19.7079l742.664 -599.383 -0.0389764 -0.0484252c9.42639,-7.60749 22.8579,-6.91418 31.4551,1.13504l742.619 599.347 -15 18.6567 15.0732 -18.6768c10.3146,8.32442 11.928,23.4355 3.60355,33.75 -4.73859,5.87126 -11.6764,8.92205 -18.6768,8.92678l-137.06 0zm-48 789.282l0 -813.282c0,-13.2543 10.7457,-24 24,-24l93.2068 0 -676.147 -545.699 -676.147 545.699 93.2079 0c13.2543,0 24,10.7457 24,24l0 813.282 1117.88 0z"/>
  <path class="fil0" d="M857.447 1081.45l333.108 0c13.2543,0 24,10.7457 24,24l0 637.417c0,13.2543 -10.7457,24 -24,24l-333.108 0c-13.2543,0 -24,-10.7457 -24,-24l0 -637.417c0,-13.2543 10.7457,-24 24,-24zm309.108 48l-285.108 0 0 589.417 285.108 0 0 -589.417z"/>
  <path class="fil0" d="M565.976 1316.89l166.554 0c13.2543,0 24,10.7457 24,24l0 166.554c0,13.2543 -10.7457,24 -24,24l-166.554 0c-13.2543,0 -24,-10.7457 -24,-24l0 -166.554c0,-13.2543 10.7457,-24 24,-24zm142.554 48l-118.554 0 0 118.554 118.554 0 0 -118.554z"/>
  <path class="fil0" d="M1315.47 1316.89l166.554 0c13.2543,0 24,10.7457 24,24l0 166.554c0,13.2543 -10.7457,24 -24,24l-166.554 0c-13.2543,0 -24,-10.7457 -24,-24l0 -166.554c0,-13.2543 10.7457,-24 24,-24zm142.554 48l-118.554 0 0 118.554 118.554 0 0 -118.554z"/>
  <polygon class="fil1" points="590.959,881.59 1457.04,881.59 1457.04,929.59 590.959,929.59 "/>
  <path class="fil1" d="M1024 515.17c38.8193,0 73.9678,15.737 99.4087,41.178 25.441,25.441 41.178,60.5894 41.178,99.4087 0,38.8193 -15.737,73.9666 -41.178,99.4076 -25.441,25.441 -60.5894,41.1792 -99.4087,41.1792 -38.8193,0 -73.9678,-15.7382 -99.4087,-41.1792 -25.441,-25.441 -41.178,-60.5882 -41.178,-99.4076 0,-38.8193 15.737,-73.9678 41.178,-99.4087 25.441,-25.441 60.5894,-41.178 99.4087,-41.178zm65.4709 75.1158c-16.7528,-16.7528 -39.9024,-27.1158 -65.4709,-27.1158 -25.5685,0 -48.7181,10.363 -65.4709,27.1158 -16.7528,16.7528 -27.1158,39.9024 -27.1158,65.4709 0,25.5685 10.363,48.717 27.1158,65.4697 16.7528,16.7528 39.9024,27.1169 65.4709,27.1169 25.5685,0 48.7181,-10.3642 65.4709,-27.1169 16.7528,-16.7528 27.1158,-39.9012 27.1158,-65.4697 0,-25.5685 -10.363,-48.7181 -27.1158,-65.4709z"/>
 </g>
 <rect class="fil2" width="2048" height="2048"/>
</svg>
