<?xml version="1.0" encoding="UTF-8"?>
<!DOCTYPE svg PUBLIC "-//W3C//DTD SVG 1.1//EN" "http://www.w3.org/Graphics/SVG/1.1/DTD/svg11.dtd">
<!-- Creator: CorelDRAW -->
<svg xmlns="http://www.w3.org/2000/svg" xml:space="preserve" width="2048px" height="2048px" style="shape-rendering:geometricPrecision; text-rendering:geometricPrecision; image-rendering:optimizeQuality; fill-rule:evenodd; clip-rule:evenodd"
viewBox="0 0 2048 2048"
 xmlns:xlink="http://www.w3.org/1999/xlink">
 <defs>
  <style type="text/css">
   <![CDATA[
    .fil2 {fill:none}
    .fil3 {fill:#616161}
    .fil1 {fill:#BDBDBD}
    .fil4 {fill:#D84315}
    .fil0 {fill:#E0E0E0}
   ]]>
  </style>
 </defs>
 <g id="Layer_x0020_1">
  <metadata id="CorelCorpID_0Corel-Layer"/>
  <g id="_342374768">
   <path id="_342374960" class="fil0" d="M1274.91 351.759l361.758 0c85.9123,0 155.33,69.4182 155.33,155l0 581.241 0 31.9996 0 420.913c0,85.9111 -69.4182,155.329 -155.33,155.329l-361.758 0 0 -1344.48z"/>
   <path id="_342374816" class="fil1" d="M912.829 351.759l361.001 0 1.07953 0 0 1344.48 -0.22441 0 -361.856 0c-85.5816,0 -155.008,-69.4182 -155.008,-155.329l0 -1034.15c0,-85.5816 69.4264,-155 155.008,-155z"/>
  </g>
  <rect class="fil2" width="2048" height="2048"/>
  <rect class="fil2" x="255.999" y="255.999" width="1536" height="1536"/>
  <rect class="fil2" x="256.003" y="256.001" width="1536" height="1536"/>
  <rect class="fil2" x="256.003" y="256.001" width="1536" height="1536"/>
  <path class="fil3" d="M1274.91 868.521c55.8319,0 101.092,45.2599 101.092,101.092 0,38.915 -21.991,72.6886 -54.2221,89.5855l0 137.411c0,25.7788 -21.091,46.8697 -46.8697,46.8697l0 0c-25.7788,0 -46.8697,-21.091 -46.8697,-46.8697l0 -137.411c-32.2311,-16.8969 -54.2221,-50.6705 -54.2221,-89.5855 0,-55.8319 45.2599,-101.092 101.092,-101.092z"/>
  <path class="fil4" d="M255.999 1041.05c0.00708662,-159.075 104.269,-288.03 232.879,-288.03 97.4339,0 180.882,74.0138 215.627,179.065l472.616 0c12.5965,0.00826772 24.5953,5.30079 33.0721,14.5843l64.7233 64.7079c7.78583,8.55355 11.6906,19.3701 11.6988,30.1784 0,10.8165 -3.913,21.626 -11.6988,30.1713l-64.7233 63.7111c-8.46969,9.29056 -20.4756,14.5984 -33.0721,14.6067l-48.1453 -0.00826772c-11.8831,-0.0153543 -23.2595,-4.72559 -31.6595,-13.1173l-32.5571 -32.5571 -32.5571 32.5571c-8.39292,8.39174 -19.7776,13.102 -31.6595,13.1173l-56.4461 0c-11.8677,0 -23.2441,-4.72559 -31.6441,-13.1173l-32.5571 -32.5571 -32.5583 32.5571c-8.39174,8.39174 -19.7835,13.1173 -31.6512,13.1102l-111.181 0.00708662c-34.7516,105.045 -118.193,179.058 -215.635,179.066 -128.602,-0.00826772 -232.871,-128.963 -232.871,-288.052zm170.358 94.4339c34.5284,0 62.5217,-42.2847 62.5217,-94.4268 0,-52.1575 -27.9851,-94.4268 -62.5217,-94.4186 -34.5284,-0.00826772 -62.5288,42.2681 -62.5288,94.4115 0.00708662,52.1493 27.9921,94.4339 62.5288,94.4339z"/>
 </g>
</svg>
